Coordinates
version=1
nRows=14
nColumns=63
inDegrees=yes

Units are S.I. units (second, meters, Newtons, ...)
If the header above contains a line with 'inDegrees', this indicates whether rotational values are in degrees (yes) or radians (no).

endheader
time	pelvis_tilt	pelvis_list	pelvis_rotation	pelvis_tx	pelvis_ty	pelvis_tz	hip_flexion_r	hip_adduction_r	hip_rotation_r	knee_angle_r	knee_angle_r_beta	ankle_angle_r	subtalar_angle_r	mtp_angle_r	hip_flexion_l	hip_adduction_l	hip_rotation_l	knee_angle_l	knee_angle_l_beta	ankle_angle_l	subtalar_angle_l	mtp_angle_l	L5_S1_Flex_Ext	L5_S1_Lat_Bending	L5_S1_axial_rotation	L4_L5_Flex_Ext	L4_L5_Lat_Bending	L4_L5_axial_rotation	L3_L4_Flex_Ext	L3_L4_Lat_Bending	L3_L4_axial_rotation	L2_L3_Flex_Ext	L2_L3_Lat_Bending	L2_L3_axial_rotation	L1_L2_Flex_Ext	L1_L2_Lat_Bending	L1_L2_axial_rotation	L1_T12_Flex_Ext	L1_T12_Lat_Bending	L1_T12_axial_rotation	Abs_r3	Abs_r2	Abs_r1	Abs_t1	Abs_t2	neck_flexion	neck_bending	neck_rotation	arm_flex_r	arm_add_r	arm_rot_r	elbow_flex_r	pro_sup_r	wrist_flex_r	wrist_dev_r	arm_flex_l	arm_add_l	arm_rot_l	elbow_flex_l	pro_sup_l	wrist_flex_l	wrist_dev_l
0.000000	-5.061308	-4.684554	83.032244	0.117137	0.971779	0.301888	-1.804947	-3.439699	-18.342608	2.375015	0.041452	10.100163	17.862369	0.000000	1.004477	3.522470	0.119768	7.010280	0.122352	2.101765	-16.665924	0.000000	0.190292	-0.485266	-0.377871	0.353391	-0.645404	-0.401488	0.312631	-1.179877	-0.401488	0.217485	-1.179877	-0.330637	0.176705	-0.989555	-0.307020	0.108733	-0.751678	-0.283403	1.359236	-5.489430	-2.101603	0.000000	0.000000	22.924374	11.111291	-5.610827	20.215818	-2.773568	63.937684	53.582760	52.989205	0.409932	20.554564	26.156013	-1.877595	74.460512	29.743945	72.662955	-9.799586	6.048027
0.017544	-4.357286	-4.964380	82.686179	0.116580	0.971101	0.303033	-0.757210	-2.900827	-18.870589	3.700051	0.064578	10.403327	17.972008	0.000000	1.257714	2.768245	-0.242668	6.679994	0.116588	3.440322	-16.402129	0.000000	0.202015	-0.375713	-0.146530	0.375162	-0.499698	-0.155688	0.331890	-0.913508	-0.155688	0.230883	-0.913508	-0.128214	0.187591	-0.766154	-0.119056	0.115431	-0.581979	-0.109898	1.442971	-4.250140	-0.814958	0.000000	0.000000	23.672143	10.184632	-5.929603	20.197910	-3.412354	62.837993	52.325329	63.989342	6.491773	20.302376	27.876771	-0.387211	86.952577	29.269165	79.822313	-6.010217	5.224261
0.035088	-3.773548	-5.201885	82.454219	0.115951	0.970646	0.304071	0.093063	-2.454020	-19.332986	4.750598	0.082914	10.645290	18.057571	0.000000	1.500265	2.150270	-0.496662	6.427644	0.112184	4.580096	-16.157308	0.000000	0.212644	-0.280936	0.008301	0.394901	-0.373644	0.008819	0.349352	-0.683067	0.008819	0.243031	-0.683067	0.007263	0.197461	-0.572884	0.006744	0.121505	-0.435169	0.006225	1.518893	-3.177999	0.046166	0.000000	0.000000	24.162831	9.436784	-5.998474	20.205063	-3.920685	61.976690	51.364011	71.302317	10.616962	20.370640	29.081607	0.687765	96.121957	29.064230	85.200290	-3.013436	4.877319
0.052632	-3.301165	-5.400010	82.324362	0.115267	0.970389	0.304995	0.761608	-2.092599	-19.733394	5.550689	0.096878	10.832286	18.121625	0.000000	1.730402	1.657736	-0.658270	6.244728	0.108991	5.540914	-15.921344	0.000000	0.222280	-0.200083	0.095070	0.412796	-0.266110	0.101011	0.365183	-0.486482	0.101011	0.254043	-0.486482	0.083186	0.206409	-0.408009	0.077244	0.127011	-0.309929	0.071302	1.587722	-2.263379	0.528748	0.000000	0.000000	24.426158	8.854377	-5.851437	20.229811	-4.310296	61.328928	50.672263	75.330791	12.990147	20.707499	29.825796	1.390018	102.317021	29.095689	88.939698	-0.740176	4.944949
0.070175	-2.931210	-5.561694	82.284605	0.114544	0.970307	0.305803	1.264163	-1.809887	-20.075405	6.124354	0.106890	10.970547	18.166737	0.000000	1.946397	1.279832	-0.743550	6.122747	0.106862	6.342605	-15.684119	0.000000	0.231023	-0.132304	0.122224	0.429033	-0.175965	0.129863	0.379548	-0.321685	0.129863	0.264036	-0.321685	0.106946	0.214528	-0.269795	0.099307	0.132006	-0.204939	0.091668	1.650173	-1.496652	0.679771	0.000000	0.000000	24.491847	8.424040	-5.522489	20.264684	-4.592922	60.869857	50.223540	76.477421	13.815975	21.261100	30.164613	1.762231	105.886137	29.330092	91.183348	0.878629	5.364905
0.087719	-2.654752	-5.689878	82.322947	0.113797	0.970374	0.306490	1.616467	-1.599205	-20.362614	6.495625	0.113370	11.066305	18.195472	0.000000	2.146521	1.005747	-0.768556	6.053202	0.105648	7.004997	-15.435515	0.000000	0.238974	-0.076748	0.098210	0.443798	-0.102075	0.104348	0.392610	-0.186605	0.104348	0.273123	-0.186605	0.085934	0.221911	-0.156505	0.079796	0.136550	-0.118883	0.073658	1.706967	-0.868190	0.546216	0.000000	0.000000	24.389619	8.132404	-5.045626	20.302213	-4.780299	60.574631	49.991300	75.144866	13.299094	21.979585	30.153332	1.847087	107.177672	29.733986	92.074051	1.912044	6.074936
0.105263	-2.462864	-5.787502	82.427384	0.113044	0.970567	0.307052	1.834256	-1.453875	-20.598614	6.688534	0.116737	11.125793	18.210396	0.000000	2.329045	0.824671	-0.749345	6.027593	0.105201	7.547920	-15.165413	0.000000	0.246233	-0.032563	0.031477	0.457280	-0.043309	0.033444	0.404537	-0.079175	0.033444	0.281420	-0.079175	0.027542	0.228652	-0.066403	0.025575	0.140698	-0.050441	0.023608	1.758819	-0.368363	0.175065	0.000000	0.000000	24.149195	7.966100	-4.454844	20.334932	-4.884160	60.418399	49.948999	71.735782	11.644152	22.811100	29.847230	1.687270	106.539995	30.273922	91.754619	2.429137	7.012794
0.122807	-2.346616	-5.857507	82.585915	0.112299	0.970861	0.307485	1.933268	-1.367219	-20.787000	6.727113	0.117410	11.155242	18.214077	0.000000	2.492243	0.725793	-0.701973	6.037420	0.105373	7.991202	-14.863697	0.000000	0.252901	0.001101	-0.069530	0.469663	0.001464	-0.073875	0.415492	0.002677	-0.073875	0.289041	0.002677	-0.060838	0.234844	0.002245	-0.056493	0.144508	0.001705	-0.052147	1.806449	0.012455	-0.386703	0.000000	0.000000	23.800296	7.911756	-3.784142	20.355370	-4.916242	60.376315	50.070093	66.652829	9.055796	23.703789	29.301580	1.325464	104.321473	30.916449	90.367862	2.498974	8.116230
0.140351	-2.297079	-5.902833	82.786539	0.111578	0.971231	0.307784	1.929241	-1.332560	-20.931365	6.635393	0.115809	11.160887	18.209078	0.000000	2.634385	0.698303	-0.642497	6.074183	0.106014	8.354672	-14.520249	0.000000	0.259079	0.025096	-0.196362	0.481135	0.033378	-0.208634	0.425641	0.061019	-0.208634	0.296101	0.061019	-0.171816	0.240581	0.051176	-0.159544	0.148038	0.038874	-0.147271	1.850574	0.283893	-1.092104	0.000000	0.000000	23.372644	7.956004	-3.067514	20.356060	-4.888279	60.423529	50.328039	60.298665	5.738674	24.605796	28.571656	0.804353	100.870474	31.628116	88.056593	2.190620	9.322994
0.157895	-2.305325	-5.926420	83.017251	0.110899	0.971653	0.307946	1.837912	-1.343220	-21.035303	6.437405	0.112354	11.148958	18.197968	0.000000	2.753743	0.731390	-0.586972	6.129383	0.106978	8.658157	-14.124949	0.000000	0.264866	0.040273	-0.340572	0.491883	0.053563	-0.361858	0.435148	0.097921	-0.361858	0.302715	0.097921	-0.298000	0.245955	0.082125	-0.276715	0.151344	0.062383	-0.255429	1.891912	0.455580	-1.894158	0.000000	0.000000	22.895961	8.085472	-2.338958	20.329533	-4.812006	60.535193	50.696294	53.075947	1.897435	25.465267	27.712735	0.166619	96.535367	32.375472	84.963622	1.573142	10.570838
0.175439	-2.362425	-5.931209	83.266051	0.110276	0.972102	0.307967	1.675019	-1.392520	-21.102407	6.157182	0.107463	11.125688	18.183311	0.000000	2.848589	0.814244	-0.551454	6.194520	0.108115	8.921487	-13.667681	0.000000	0.270364	0.047484	-0.493713	0.502092	0.063153	-0.524570	0.444180	0.115451	-0.524570	0.308999	0.115451	-0.431999	0.251060	0.096828	-0.401142	0.154486	0.073552	-0.370285	1.931180	0.537143	-2.745884	0.000000	0.000000	22.399968	8.286792	-1.632471	20.268321	-4.699159	60.686459	51.148314	45.387334	-2.263276	26.230346	26.780091	-0.545054	91.664519	33.125066	81.231761	0.715607	11.797514
0.192982	-2.454252	-5.910413	83.498899	0.109778	0.972564	0.307869	1.468432	-1.475156	-21.140777	5.863756	0.102342	11.075980	18.170650	0.000000	2.901212	0.925485	-0.622819	6.221520	0.108586	9.251662	-13.018872	0.000000	0.273833	0.046779	-0.613467	0.508535	0.062215	-0.651808	0.449880	0.113737	-0.651808	0.312964	0.113737	-0.536783	0.254281	0.095391	-0.498442	0.156468	0.072460	-0.460100	1.955962	0.529168	-3.411918	0.000000	0.000000	21.951690	8.465742	-1.148244	20.111515	-4.618848	60.580359	51.719728	35.699779	-7.199448	26.772695	26.126944	-1.133417	87.842784	33.773740	76.838649	-0.408578	12.405208
0.210526	-2.579934	-5.888921	83.732205	0.109378	0.972927	0.307544	1.233241	-1.583355	-21.160080	5.541745	0.096722	11.052624	18.160202	0.000000	2.934516	1.066170	-0.787992	6.256104	0.109190	9.561375	-12.293731	0.000000	0.278537	0.038411	-0.724490	0.517270	0.051087	-0.769770	0.457608	0.093393	-0.769770	0.318339	0.093393	-0.633928	0.258649	0.078328	-0.588648	0.159156	0.059499	-0.543367	1.989559	0.434517	-4.029394	0.000000	0.000000	21.632922	8.756449	-0.807387	19.844677	-4.517946	60.311474	52.214213	30.591405	-10.199258	26.905397	25.512124	-1.719300	84.313834	34.293674	72.410969	-1.445610	13.078953
0.228070	-2.717475	-5.870648	83.972719	0.109086	0.973186	0.307006	0.985607	-1.695379	-21.188844	5.221126	0.091126	11.070653	18.164236	0.000000	2.951833	1.209905	-0.994856	6.298441	0.109929	9.904201	-11.484146	0.000000	0.285279	0.025739	-0.838305	0.529792	0.034233	-0.890699	0.468686	0.062582	-0.890699	0.326046	0.062582	-0.733517	0.264910	0.052487	-0.681122	0.163009	0.039870	-0.628728	2.037722	0.291167	-4.662399	0.000000	0.000000	21.421401	9.133930	-0.506696	19.580049	-4.393605	60.429474	52.694447	26.495992	-12.881764	26.967139	24.839704	-2.294453	80.907917	34.679195	67.627478	-2.229422	13.756001
